<svg width="125" height="573" viewBox="0 0 125 573" fill="none" xmlns="http://www.w3.org/2000/svg">
<path d="M69 1C67.8333 1.16667 65.6 2.5 66 6.5C66.5 11.5 64 12.5 62 13C60 13.5 58.5 14 59 19.5C59.5 25 56 25.5 53.5 26C51 26.5 50 27.5 50.5 36" stroke="#AE8459" stroke-width="2" stroke-linecap="round" stroke-linejoin="round"/>
<path d="M103 50C102.5 50.8333 100.7 52.2 97.5 51C93.5 49.5 90.5 49.5 88.5 54C86.5 58.5 86 62 80 60C74 58 72.5 60 71.5 64C70.5 68 68.5 70.5 64 68.5C59.5 66.5 55 66.5 54 71C53 75.5 53 77.5 49.5 77" stroke="#E08345" stroke-width="2" stroke-linecap="round" stroke-linejoin="round"/>
<path d="M17 29.5C16.8333 30.6667 16.8 33.4 18 35C19.5 37 19 38 16.5 39.5C14 41 14.5 43 16 45.5C17.5 48 16.5 48.5 14.5 50C12.5 51.5 12 52 14 54.5C15.6 56.5 14.3333 58.6667 13.5 59.5" stroke="#F8F8F8" stroke-width="2" stroke-linecap="round" stroke-linejoin="round"/>
<path d="M92 288.5L115 285L106 310.5L92 288.5Z" fill="#3F97E4"/>
<path d="M59.5 367L63 353L51 355.5L59.5 367Z" stroke="white" stroke-linejoin="round"/>
<circle cx="53.8125" cy="53.8125" r="53.8125" transform="matrix(-1 0 0 1 124 463.958)" stroke="#5992C3" stroke-width="2"/>
<circle cx="52.1042" cy="52.1042" r="52.1042" transform="matrix(-1 0 0 1 114.604 459.688)" stroke="#5992C3" stroke-width="2"/>
<circle cx="52.1042" cy="52.1042" r="52.1042" transform="matrix(-1 0 0 1 105.208 452)" stroke="#5992C3" stroke-width="2"/>
</svg>
